<svg version="1.0" preserveAspectRatio="xMidYMid meet" viewBox="2.88 30.231041758293834 470.4 126.2026028957346" zoomAndPan="magnify" xmlns:xlink="http://www.w3.org/1999/xlink" xmlns="http://www.w3.org/2000/svg" style="max-height: 500px" width="470.4" height="126.2026028957346"><defs><g></g></defs><g fill-opacity="1" fill="#000000"><g transform="translate(6.370378, 150.387904)"><g><path d="M 37.828125 -115.125 L 37.828125 -113.484375 L 24.015625 -113.484375 L 24.015625 0 L 14.640625 0 L 14.640625 -113.484375 L 0.828125 -113.484375 L 0.828125 -115.125 Z M 37.828125 -115.125"></path></g></g></g><g fill-opacity="1" fill="#000000"><g transform="translate(52.934906, 150.387904)"><g><path d="M 29.109375 -100.828125 C 29.109375 -105.097656 28.503906 -108.550781 27.296875 -111.1875 C 26.097656 -113.8125 24.507812 -115.125 22.53125 -115.125 C 20.445312 -115.125 18.800781 -113.8125 17.59375 -111.1875 C 16.394531 -108.550781 15.796875 -105.097656 15.796875 -100.828125 L 15.796875 -14.3125 C 15.796875 -10.03125 16.394531 -6.578125 17.59375 -3.953125 C 18.800781 -1.316406 20.445312 0 22.53125 0 C 24.507812 0 26.097656 -1.316406 27.296875 -3.953125 C 28.503906 -6.578125 29.109375 -10.03125 29.109375 -14.3125 Z M 38.484375 -16.125 C 38.484375 -10.75 37.054688 -6.472656 34.203125 -3.296875 C 31.242188 -0.00390625 27.351562 1.640625 22.53125 1.640625 C 17.59375 1.640625 13.703125 -0.00390625 10.859375 -3.296875 C 7.898438 -6.472656 6.421875 -10.75 6.421875 -16.125 L 6.421875 -99.015625 C 6.421875 -104.390625 7.898438 -108.71875 10.859375 -112 C 13.703125 -115.1875 17.59375 -116.78125 22.53125 -116.78125 C 27.351562 -116.78125 31.242188 -115.1875 34.203125 -112 C 37.054688 -108.71875 38.484375 -104.390625 38.484375 -99.015625 Z M 38.484375 -16.125"></path></g></g></g><g fill-opacity="1" fill="#000000"><g transform="translate(105.913457, 150.387904)"><g><path d="M 30.921875 -42.4375 C 30.921875 -46.820312 30.316406 -50.382812 29.109375 -53.125 C 27.898438 -55.757812 26.253906 -57.078125 24.171875 -57.078125 L 15.953125 -57.078125 L 15.953125 0 L 6.578125 0 L 6.578125 -115.125 L 24.015625 -115.125 C 28.953125 -115.125 32.898438 -113.59375 35.859375 -110.53125 C 38.816406 -107.34375 40.296875 -103.117188 40.296875 -97.859375 L 40.296875 -75.65625 C 40.296875 -71.164062 39.304688 -67.382812 37.328125 -64.3125 C 35.359375 -61.238281 32.675781 -59.15625 29.28125 -58.0625 C 32.675781 -57.1875 35.359375 -55.375 37.328125 -52.625 C 39.304688 -49.882812 40.296875 -46.539062 40.296875 -42.59375 L 40.296875 0 L 30.921875 0 Z M 24.015625 -58.71875 C 26.097656 -58.71875 27.796875 -60.253906 29.109375 -63.328125 C 30.316406 -66.390625 30.921875 -70.5 30.921875 -75.65625 L 30.921875 -97.703125 C 30.921875 -102.523438 30.316406 -106.363281 29.109375 -109.21875 C 27.796875 -112.0625 26.097656 -113.484375 24.015625 -113.484375 L 15.953125 -113.484375 L 15.953125 -58.71875 Z M 24.015625 -58.71875"></path></g></g></g><g fill-opacity="1" fill="#000000"><g transform="translate(160.701092, 150.387904)"><g><path d="M 29.109375 -100.828125 C 29.109375 -105.097656 28.503906 -108.550781 27.296875 -111.1875 C 26.097656 -113.8125 24.507812 -115.125 22.53125 -115.125 C 20.445312 -115.125 18.800781 -113.8125 17.59375 -111.1875 C 16.394531 -108.550781 15.796875 -105.097656 15.796875 -100.828125 L 15.796875 -14.3125 C 15.796875 -10.03125 16.394531 -6.578125 17.59375 -3.953125 C 18.800781 -1.316406 20.445312 0 22.53125 0 C 24.507812 0 26.097656 -1.316406 27.296875 -3.953125 C 28.503906 -6.578125 29.109375 -10.03125 29.109375 -14.3125 Z M 41.453125 2.796875 C 40.460938 1.585938 39.640625 -0.0546875 38.984375 -2.140625 C 38.210938 -4.222656 37.660156 -6.523438 37.328125 -9.046875 C 36.234375 -5.753906 34.425781 -3.175781 31.90625 -1.3125 C 29.269531 0.65625 26.144531 1.640625 22.53125 1.640625 C 17.59375 1.640625 13.703125 -0.00390625 10.859375 -3.296875 C 7.898438 -6.472656 6.421875 -10.75 6.421875 -16.125 L 6.421875 -99.015625 C 6.421875 -104.390625 7.898438 -108.71875 10.859375 -112 C 13.703125 -115.1875 17.59375 -116.78125 22.53125 -116.78125 C 27.351562 -116.78125 31.242188 -115.1875 34.203125 -112 C 37.054688 -108.71875 38.484375 -104.390625 38.484375 -99.015625 L 38.484375 -16.125 C 38.484375 -12.175781 38.8125 -8.5 39.46875 -5.09375 C 40.019531 -1.695312 40.789062 0.875 41.78125 2.625 L 41.609375 2.796875 Z M 41.453125 2.796875"></path></g></g></g><g fill-opacity="1" fill="#000000"><g transform="translate(213.679643, 150.387904)"><g><path d="M 39.640625 0 L 30.265625 0 L 26.8125 -38.8125 L 11.1875 -38.8125 L 6.078125 -0.828125 C 5.972656 -0.710938 5.921875 -0.601562 5.921875 -0.5 L 5.921875 0 L 4.109375 0 C 4.109375 -0.4375 4.164062 -0.710938 4.28125 -0.828125 L 19.734375 -114.3125 L 19.734375 -114.640625 C 19.734375 -114.742188 19.789062 -114.851562 19.90625 -114.96875 C 19.90625 -114.96875 19.90625 -115.019531 19.90625 -115.125 L 27.953125 -115.125 L 39.640625 -0.828125 L 39.796875 -0.828125 Z M 20.5625 -108.546875 L 11.34375 -40.453125 L 26.640625 -40.453125 Z M 20.5625 -108.546875"></path></g></g></g><g fill-opacity="1" fill="#000000"><g transform="translate(263.862349, 150.387904)"><g><path d="M 6.578125 0 L 6.578125 -115.125 L 22.859375 -115.125 C 28.117188 -115.125 32.34375 -113.59375 35.53125 -110.53125 C 38.707031 -107.34375 40.296875 -103.117188 40.296875 -97.859375 L 40.296875 -17.265625 C 40.296875 -12.003906 38.707031 -7.835938 35.53125 -4.765625 C 32.34375 -1.585938 28.117188 0 22.859375 0 Z M 22.859375 -1.640625 C 25.273438 -1.640625 27.25 -3.066406 28.78125 -5.921875 C 30.207031 -8.773438 30.921875 -12.554688 30.921875 -17.265625 L 30.921875 -97.703125 C 30.921875 -102.523438 30.207031 -106.363281 28.78125 -109.21875 C 27.25 -112.0625 25.273438 -113.484375 22.859375 -113.484375 L 15.953125 -113.484375 L 15.953125 -1.640625 Z M 22.859375 -1.640625"></path></g></g></g><g fill-opacity="1" fill="#000000"><g transform="translate(318.649995, 150.387904)"><g><path d="M 29.109375 -100.828125 C 29.109375 -105.097656 28.503906 -108.550781 27.296875 -111.1875 C 26.097656 -113.8125 24.507812 -115.125 22.53125 -115.125 C 20.445312 -115.125 18.800781 -113.8125 17.59375 -111.1875 C 16.394531 -108.550781 15.796875 -105.097656 15.796875 -100.828125 L 15.796875 -14.3125 C 15.796875 -10.03125 16.394531 -6.578125 17.59375 -3.953125 C 18.800781 -1.316406 20.445312 0 22.53125 0 C 24.507812 0 26.097656 -1.316406 27.296875 -3.953125 C 28.503906 -6.578125 29.109375 -10.03125 29.109375 -14.3125 Z M 38.484375 -16.125 C 38.484375 -10.75 37.054688 -6.472656 34.203125 -3.296875 C 31.242188 -0.00390625 27.351562 1.640625 22.53125 1.640625 C 17.59375 1.640625 13.703125 -0.00390625 10.859375 -3.296875 C 7.898438 -6.472656 6.421875 -10.75 6.421875 -16.125 L 6.421875 -99.015625 C 6.421875 -104.390625 7.898438 -108.71875 10.859375 -112 C 13.703125 -115.1875 17.59375 -116.78125 22.53125 -116.78125 C 27.351562 -116.78125 31.242188 -115.1875 34.203125 -112 C 37.054688 -108.71875 38.484375 -104.390625 38.484375 -99.015625 Z M 38.484375 -16.125"></path></g></g></g><g fill-opacity="1" fill="#000000"><g transform="translate(371.628546, 150.387904)"><g><path d="M 30.921875 -42.4375 C 30.921875 -46.820312 30.316406 -50.382812 29.109375 -53.125 C 27.898438 -55.757812 26.253906 -57.078125 24.171875 -57.078125 L 15.953125 -57.078125 L 15.953125 0 L 6.578125 0 L 6.578125 -115.125 L 24.015625 -115.125 C 28.953125 -115.125 32.898438 -113.59375 35.859375 -110.53125 C 38.816406 -107.34375 40.296875 -103.117188 40.296875 -97.859375 L 40.296875 -75.65625 C 40.296875 -71.164062 39.304688 -67.382812 37.328125 -64.3125 C 35.359375 -61.238281 32.675781 -59.15625 29.28125 -58.0625 C 32.675781 -57.1875 35.359375 -55.375 37.328125 -52.625 C 39.304688 -49.882812 40.296875 -46.539062 40.296875 -42.59375 L 40.296875 0 L 30.921875 0 Z M 24.015625 -58.71875 C 26.097656 -58.71875 27.796875 -60.253906 29.109375 -63.328125 C 30.316406 -66.390625 30.921875 -70.5 30.921875 -75.65625 L 30.921875 -97.703125 C 30.921875 -102.523438 30.316406 -106.363281 29.109375 -109.21875 C 27.796875 -112.0625 26.097656 -113.484375 24.015625 -113.484375 L 15.953125 -113.484375 L 15.953125 -58.71875 Z M 24.015625 -58.71875"></path></g></g></g><g fill-opacity="1" fill="#000000"><g transform="translate(426.416193, 150.387904)"><g><path d="M 39.140625 -115.125 L 40.625 -115.125 L 40.625 -8.71875 L 42.765625 0 L 34.703125 0 L 10.03125 -100.328125 L 10.03125 0 L 8.546875 0 L 8.546875 -106.421875 L 6.421875 -115.125 L 14.46875 -115.125 L 39.140625 -14.796875 Z M 39.140625 -115.125"></path></g></g></g></svg>